<mxfile host="app.diagrams.net" modified="2024-01-09T13:11:26.444Z" agent="Mozilla/5.0 (Macintosh; Intel Mac OS X 10_15_7) AppleWebKit/537.36 (KHTML, like Gecko) Chrome/120.0.0.0 Safari/537.36" etag="FNELSrpBREKS-Obg-T9l" version="22.1.17" type="github">
  <diagram name="第 1 页" id="dALFRjgGMer_rasdDfTR">
    <mxGraphModel dx="1426" dy="651" grid="0" gridSize="10" guides="1" tooltips="1" connect="1" arrows="1" fold="1" page="0" pageScale="1" pageWidth="1200" pageHeight="1920" math="0" shadow="0">
      <root>
        <mxCell id="0" />
        <mxCell id="1" parent="0" />
        <mxCell id="ur1QxytqpvKl4PKdC1VD-3" value="" style="edgeStyle=orthogonalEdgeStyle;rounded=0;orthogonalLoop=1;jettySize=auto;html=1;" edge="1" parent="1" source="ur1QxytqpvKl4PKdC1VD-1" target="ur1QxytqpvKl4PKdC1VD-2">
          <mxGeometry relative="1" as="geometry" />
        </mxCell>
        <mxCell id="ur1QxytqpvKl4PKdC1VD-1" value="生成业务活动" style="rounded=1;whiteSpace=wrap;html=1;" vertex="1" parent="1">
          <mxGeometry x="271" y="168" width="120" height="60" as="geometry" />
        </mxCell>
        <mxCell id="ur1QxytqpvKl4PKdC1VD-6" value="" style="edgeStyle=orthogonalEdgeStyle;rounded=0;orthogonalLoop=1;jettySize=auto;html=1;" edge="1" parent="1" source="ur1QxytqpvKl4PKdC1VD-2" target="ur1QxytqpvKl4PKdC1VD-7">
          <mxGeometry relative="1" as="geometry">
            <mxPoint x="331" y="438" as="targetPoint" />
          </mxGeometry>
        </mxCell>
        <mxCell id="ur1QxytqpvKl4PKdC1VD-2" value="确定业务活动设计属性&amp;lt;B_n, O*&amp;gt;" style="whiteSpace=wrap;html=1;rounded=1;" vertex="1" parent="1">
          <mxGeometry x="271" y="308" width="120" height="60" as="geometry" />
        </mxCell>
        <mxCell id="ur1QxytqpvKl4PKdC1VD-4" value="Fs：当前业务活动有自身相关特殊属性值&lt;br&gt;Fo：可能和现有活动相关属性值" style="text;html=1;strokeColor=none;fillColor=none;align=center;verticalAlign=middle;whiteSpace=wrap;rounded=0;" vertex="1" parent="1">
          <mxGeometry x="-2" y="318" width="239" height="48" as="geometry" />
        </mxCell>
        <mxCell id="ur1QxytqpvKl4PKdC1VD-11" value="" style="edgeStyle=orthogonalEdgeStyle;rounded=0;orthogonalLoop=1;jettySize=auto;html=1;" edge="1" parent="1" source="ur1QxytqpvKl4PKdC1VD-7" target="ur1QxytqpvKl4PKdC1VD-10">
          <mxGeometry relative="1" as="geometry" />
        </mxCell>
        <mxCell id="ur1QxytqpvKl4PKdC1VD-12" value="YES" style="edgeLabel;html=1;align=center;verticalAlign=middle;resizable=0;points=[];" vertex="1" connectable="0" parent="ur1QxytqpvKl4PKdC1VD-11">
          <mxGeometry x="-0.45" y="4" relative="1" as="geometry">
            <mxPoint as="offset" />
          </mxGeometry>
        </mxCell>
        <mxCell id="ur1QxytqpvKl4PKdC1VD-14" value="" style="edgeStyle=orthogonalEdgeStyle;rounded=0;orthogonalLoop=1;jettySize=auto;html=1;" edge="1" parent="1" source="ur1QxytqpvKl4PKdC1VD-7" target="ur1QxytqpvKl4PKdC1VD-13">
          <mxGeometry relative="1" as="geometry" />
        </mxCell>
        <mxCell id="ur1QxytqpvKl4PKdC1VD-15" value="NO" style="edgeLabel;html=1;align=center;verticalAlign=middle;resizable=0;points=[];" vertex="1" connectable="0" parent="ur1QxytqpvKl4PKdC1VD-14">
          <mxGeometry x="0.4261" relative="1" as="geometry">
            <mxPoint y="1" as="offset" />
          </mxGeometry>
        </mxCell>
        <mxCell id="ur1QxytqpvKl4PKdC1VD-7" value="当前活动设计属性值是否已赋值" style="rhombus;whiteSpace=wrap;html=1;direction=south;" vertex="1" parent="1">
          <mxGeometry x="252.5" y="441" width="157" height="80" as="geometry" />
        </mxCell>
        <mxCell id="ur1QxytqpvKl4PKdC1VD-17" value="" style="edgeStyle=orthogonalEdgeStyle;rounded=0;orthogonalLoop=1;jettySize=auto;html=1;" edge="1" parent="1" source="ur1QxytqpvKl4PKdC1VD-10" target="ur1QxytqpvKl4PKdC1VD-16">
          <mxGeometry relative="1" as="geometry" />
        </mxCell>
        <mxCell id="ur1QxytqpvKl4PKdC1VD-10" value="直接引用" style="whiteSpace=wrap;html=1;" vertex="1" parent="1">
          <mxGeometry x="271" y="561" width="120" height="60" as="geometry" />
        </mxCell>
        <mxCell id="ur1QxytqpvKl4PKdC1VD-18" style="edgeStyle=orthogonalEdgeStyle;rounded=0;orthogonalLoop=1;jettySize=auto;html=1;" edge="1" parent="1" source="ur1QxytqpvKl4PKdC1VD-13" target="ur1QxytqpvKl4PKdC1VD-16">
          <mxGeometry relative="1" as="geometry">
            <Array as="points">
              <mxPoint x="563" y="649" />
              <mxPoint x="331" y="649" />
            </Array>
          </mxGeometry>
        </mxCell>
        <mxCell id="ur1QxytqpvKl4PKdC1VD-13" value="自己生成" style="whiteSpace=wrap;html=1;" vertex="1" parent="1">
          <mxGeometry x="503" y="561" width="120" height="60" as="geometry" />
        </mxCell>
        <mxCell id="ur1QxytqpvKl4PKdC1VD-16" value="输出当前业务活动" style="ellipse;whiteSpace=wrap;html=1;" vertex="1" parent="1">
          <mxGeometry x="291" y="691" width="80" height="80" as="geometry" />
        </mxCell>
      </root>
    </mxGraphModel>
  </diagram>
</mxfile>
